<svg width="59" height="37" viewBox="0 0 59 37" fill="none" xmlns="http://www.w3.org/2000/svg">
<path d="M14.517 36.767C11.5852 36.7557 9.0625 36.0341 6.94886 34.6023C4.84659 33.1705 3.22727 31.0966 2.09091 28.3807C0.965909 25.6648 0.409091 22.3977 0.420455 18.5795C0.420455 14.7727 0.982955 11.5284 2.10795 8.84659C3.24432 6.16477 4.86364 4.125 6.96591 2.72727C9.07955 1.31818 11.5966 0.613635 14.517 0.613635C17.4375 0.613635 19.9489 1.31818 22.0511 2.72727C24.1648 4.13636 25.7898 6.18182 26.9261 8.86364C28.0625 11.5341 28.625 14.7727 28.6136 18.5795C28.6136 22.4091 28.0455 25.6818 26.9091 28.3977C25.7841 31.1136 24.1705 33.1875 22.0682 34.6193C19.9659 36.0511 17.4489 36.767 14.517 36.767ZM14.517 30.6477C16.517 30.6477 18.1136 29.642 19.3068 27.6307C20.5 25.6193 21.0909 22.6023 21.0795 18.5795C21.0795 15.9318 20.8068 13.7273 20.2614 11.9659C19.7273 10.2045 18.9659 8.88068 17.9773 7.99432C17 7.10795 15.8466 6.66477 14.517 6.66477C12.5284 6.66477 10.9375 7.65909 9.74432 9.64773C8.55114 11.6364 7.94886 14.6136 7.9375 18.5795C7.9375 21.2614 8.20455 23.5 8.73864 25.2955C9.28409 27.0795 10.0511 28.4205 11.0398 29.3182C12.0284 30.2045 13.1875 30.6477 14.517 30.6477ZM33.8764 36V30.6818L46.3026 19.1761C47.3594 18.1534 48.2457 17.233 48.9616 16.4148C49.6889 15.5966 50.2401 14.7955 50.6151 14.0114C50.9901 13.2159 51.1776 12.358 51.1776 11.4375C51.1776 10.4148 50.9446 9.53409 50.4787 8.79545C50.0128 8.04545 49.3764 7.47159 48.5696 7.07386C47.7628 6.66477 46.848 6.46023 45.8253 6.46023C44.7571 6.46023 43.8253 6.67614 43.0298 7.10795C42.2344 7.53977 41.6207 8.15909 41.1889 8.96591C40.7571 9.77273 40.5412 10.733 40.5412 11.8466H33.5355C33.5355 9.5625 34.0526 7.57955 35.0866 5.89773C36.1207 4.21591 37.5696 2.91477 39.4332 1.99432C41.2969 1.07386 43.4446 0.613635 45.8764 0.613635C48.3764 0.613635 50.5526 1.05682 52.4048 1.94318C54.2685 2.81818 55.7173 4.03409 56.7514 5.59091C57.7855 7.14773 58.3026 8.93182 58.3026 10.9432C58.3026 12.2614 58.0412 13.5625 57.5185 14.8466C57.0071 16.1307 56.0923 17.5568 54.7741 19.125C53.456 20.6818 51.598 22.5511 49.2003 24.733L44.1037 29.7273V29.9659H58.7628V36H33.8764Z" fill="#CAC9CD"/>
</svg>
