<svg width="61" height="37" viewBox="0 0 61 37" fill="none" xmlns="http://www.w3.org/2000/svg">
<path d="M14.517 36.767C11.5852 36.7557 9.0625 36.0341 6.94886 34.6023C4.84659 33.1705 3.22727 31.0966 2.09091 28.3807C0.965909 25.6648 0.409091 22.3977 0.420455 18.5795C0.420455 14.7727 0.982955 11.5284 2.10795 8.84659C3.24432 6.16477 4.86364 4.125 6.96591 2.72727C9.07955 1.31818 11.5966 0.613635 14.517 0.613635C17.4375 0.613635 19.9489 1.31818 22.0511 2.72727C24.1648 4.13636 25.7898 6.18182 26.9261 8.86364C28.0625 11.5341 28.625 14.7727 28.6136 18.5795C28.6136 22.4091 28.0455 25.6818 26.9091 28.3977C25.7841 31.1136 24.1705 33.1875 22.0682 34.6193C19.9659 36.0511 17.4489 36.767 14.517 36.767ZM14.517 30.6477C16.517 30.6477 18.1136 29.642 19.3068 27.6307C20.5 25.6193 21.0909 22.6023 21.0795 18.5795C21.0795 15.9318 20.8068 13.7273 20.2614 11.9659C19.7273 10.2045 18.9659 8.88068 17.9773 7.99432C17 7.10795 15.8466 6.66477 14.517 6.66477C12.5284 6.66477 10.9375 7.65909 9.74432 9.64773C8.55114 11.6364 7.94886 14.6136 7.9375 18.5795C7.9375 21.2614 8.20455 23.5 8.73864 25.2955C9.28409 27.0795 10.0511 28.4205 11.0398 29.3182C12.0284 30.2045 13.1875 30.6477 14.517 30.6477ZM46.7798 36.4773C44.2344 36.4773 41.9673 36.0398 39.9787 35.1648C38.0014 34.2784 36.4389 33.0625 35.2912 31.517C34.1548 29.9602 33.5696 28.1648 33.5355 26.1307H40.9673C41.0128 26.983 41.2912 27.733 41.8026 28.3807C42.3253 29.017 43.0185 29.5114 43.8821 29.8636C44.7457 30.2159 45.7173 30.392 46.7969 30.392C47.9219 30.392 48.9162 30.1932 49.7798 29.7955C50.6435 29.3977 51.3196 28.8466 51.8082 28.142C52.2969 27.4375 52.5412 26.625 52.5412 25.7045C52.5412 24.7727 52.2798 23.9489 51.7571 23.233C51.2457 22.5057 50.5071 21.9375 49.5412 21.5284C48.5866 21.1193 47.4503 20.9148 46.1321 20.9148H42.8764V15.4943H46.1321C47.2457 15.4943 48.2287 15.3011 49.081 14.9148C49.9446 14.5284 50.6151 13.9943 51.0923 13.3125C51.5696 12.6193 51.8082 11.8125 51.8082 10.892C51.8082 10.017 51.598 9.25 51.1776 8.59091C50.7685 7.92045 50.1889 7.39773 49.4389 7.02273C48.7003 6.64773 47.8366 6.46023 46.848 6.46023C45.848 6.46023 44.9332 6.64205 44.1037 7.00568C43.2741 7.35795 42.6094 7.86364 42.1094 8.52273C41.6094 9.18182 41.3423 9.95454 41.3082 10.8409H34.2344C34.2685 8.82954 34.8423 7.05682 35.956 5.52273C37.0696 3.98864 38.5696 2.78977 40.456 1.92614C42.3537 1.05114 44.4957 0.613635 46.8821 0.613635C49.2912 0.613635 51.3991 1.05114 53.206 1.92614C55.0128 2.80114 56.4162 3.98295 57.4162 5.47159C58.4276 6.94886 58.9276 8.60795 58.9162 10.4489C58.9276 12.4034 58.3196 14.0341 57.0923 15.3409C55.8764 16.6477 54.2912 17.4773 52.3366 17.8295V18.1023C54.9048 18.4318 56.8594 19.3239 58.2003 20.7784C59.5526 22.2216 60.223 24.0284 60.2116 26.1989C60.223 28.1875 59.6491 29.9545 58.4901 31.5C57.3423 33.0455 55.7571 34.2614 53.7344 35.1477C51.7116 36.0341 49.3935 36.4773 46.7798 36.4773Z" fill="#CAC9CD"/>
</svg>
